<svg width="794" height="202" viewBox="0 0 794 202" fill="none" xmlns="http://www.w3.org/2000/svg">
<path d="M86.78 200.58V175.47H76.9099V170.79H102.19V175.47H92.3199V200.58H86.78Z" fill="#0A486B"/>
<path d="M110.6 200.58V170.8H122.86C125.5 170.8 127.76 171.23 129.65 172.08C131.54 172.93 132.99 174.15 134.01 175.74C135.03 177.33 135.54 179.22 135.54 181.4C135.54 183.58 135.03 185.46 134.01 187.04C132.99 188.61 131.53 189.82 129.65 190.66C127.76 191.5 125.5 191.92 122.86 191.92H113.67L116.14 189.41V200.6H110.6V200.58ZM116.13 189.99L113.66 187.35H122.59C125.03 187.35 126.87 186.83 128.1 185.77C129.33 184.72 129.95 183.26 129.95 181.39C129.95 179.49 129.33 178.03 128.1 177.01C126.87 175.99 125.03 175.48 122.59 175.48H113.66L116.13 172.76V189.99ZM130.09 200.58L122.56 189.77H128.47L136.05 200.58H130.09Z" fill="#0A486B"/>
<path d="M141.75 200.58L155.15 170.79H160.6L174.05 200.58H168.26L156.73 173.73H158.94L147.45 200.58H141.75ZM147.92 193.69L149.41 189.35H165.49L166.98 193.69H147.92Z" fill="#0A486B"/>
<path d="M182.09 200.58V170.8H186.64L205.32 193.74H203.06V170.8H208.55V200.59H204L185.32 177.65H187.58V200.59H182.09V200.58Z" fill="#0A486B"/>
<path d="M230.05 201.01C227.73 201.01 225.5 200.67 223.37 200.01C221.24 199.34 219.55 198.49 218.31 197.44L220.23 193.14C221.42 194.07 222.89 194.86 224.66 195.48C226.42 196.1 228.22 196.41 230.06 196.41C231.62 196.41 232.88 196.24 233.85 195.9C234.81 195.56 235.52 195.1 235.98 194.52C236.43 193.94 236.66 193.28 236.66 192.54C236.66 191.63 236.33 190.9 235.68 190.35C235.03 189.8 234.18 189.36 233.15 189.03C232.11 188.7 230.97 188.4 229.7 188.11C228.44 187.83 227.18 187.49 225.91 187.11C224.65 186.73 223.5 186.23 222.46 185.62C221.42 185.01 220.58 184.19 219.93 183.17C219.28 182.15 218.95 180.84 218.95 179.26C218.95 177.64 219.38 176.16 220.25 174.81C221.11 173.46 222.43 172.39 224.21 171.58C225.98 170.77 228.23 170.37 230.95 170.37C232.74 170.37 234.51 170.6 236.27 171.05C238.03 171.5 239.56 172.15 240.87 173.01L239.12 177.31C237.79 176.52 236.41 175.93 234.99 175.54C233.57 175.16 232.21 174.97 230.9 174.97C229.37 174.97 228.13 175.15 227.18 175.52C226.23 175.89 225.53 176.37 225.09 176.97C224.65 177.56 224.43 178.25 224.43 179.01C224.43 179.92 224.75 180.65 225.39 181.2C226.03 181.75 226.87 182.19 227.9 182.5C228.94 182.81 230.09 183.12 231.37 183.41C232.65 183.71 233.92 184.04 235.18 184.41C236.44 184.78 237.59 185.26 238.63 185.86C239.66 186.46 240.5 187.27 241.14 188.29C241.78 189.31 242.1 190.6 242.1 192.16C242.1 193.75 241.67 195.22 240.8 196.56C239.94 197.91 238.61 198.99 236.82 199.79C235.03 200.6 232.77 201.01 230.05 201.01Z" fill="#0A486B"/>
<path d="M251.84 200.58V170.8H264.1C266.74 170.8 269 171.23 270.89 172.08C272.78 172.93 274.23 174.15 275.25 175.74C276.27 177.33 276.78 179.22 276.78 181.4C276.78 183.58 276.27 185.47 275.25 187.06C274.23 188.65 272.77 189.87 270.89 190.72C269 191.57 266.74 192 264.1 192H254.91L257.38 189.41V200.6H251.84V200.58ZM257.37 189.99L254.9 187.31H263.83C266.27 187.31 268.11 186.79 269.34 185.76C270.57 184.73 271.19 183.27 271.19 181.4C271.19 179.5 270.57 178.04 269.34 177.02C268.11 176 266.27 175.49 263.83 175.49H254.9L257.37 172.77V189.99Z" fill="#0A486B"/>
<path d="M300.94 201.01C298.61 201.01 296.47 200.63 294.51 199.86C292.55 199.1 290.85 198.02 289.4 196.65C287.95 195.28 286.83 193.66 286.04 191.8C285.25 189.94 284.85 187.91 284.85 185.69C284.85 183.47 285.25 181.44 286.04 179.58C286.83 177.72 287.95 176.11 289.4 174.73C290.85 173.35 292.55 172.28 294.51 171.52C296.47 170.75 298.6 170.37 300.89 170.37C303.21 170.37 305.35 170.75 307.29 171.52C309.23 172.29 310.93 173.36 312.38 174.73C313.83 176.11 314.95 177.72 315.74 179.58C316.53 181.44 316.93 183.48 316.93 185.69C316.93 187.9 316.53 189.94 315.74 191.82C314.95 193.69 313.82 195.31 312.38 196.67C310.93 198.03 309.24 199.1 307.29 199.86C305.36 200.63 303.24 201.01 300.94 201.01ZM300.9 196.16C302.4 196.16 303.79 195.91 305.07 195.39C306.35 194.88 307.45 194.15 308.39 193.2C309.33 192.25 310.06 191.15 310.58 189.88C311.1 188.62 311.37 187.22 311.37 185.69C311.37 184.16 311.11 182.76 310.58 181.5C310.06 180.24 309.33 179.13 308.39 178.18C307.46 177.23 306.35 176.5 305.07 175.99C303.79 175.48 302.4 175.22 300.9 175.22C299.4 175.22 298.01 175.47 296.75 175.99C295.49 176.5 294.38 177.23 293.43 178.18C292.48 179.13 291.74 180.24 291.22 181.5C290.7 182.76 290.43 184.16 290.43 185.69C290.43 187.19 290.69 188.58 291.22 189.86C291.74 191.14 292.48 192.25 293.41 193.2C294.35 194.15 295.45 194.88 296.73 195.39C298.01 195.9 299.39 196.16 300.9 196.16Z" fill="#0A486B"/>
<path d="M327.07 200.58V170.8H339.33C341.97 170.8 344.23 171.23 346.12 172.08C348.01 172.93 349.46 174.15 350.48 175.74C351.5 177.33 352.01 179.22 352.01 181.4C352.01 183.58 351.5 185.46 350.48 187.04C349.46 188.61 348 189.82 346.12 190.66C344.23 191.5 341.97 191.92 339.33 191.92H330.14L332.61 189.41V200.6H327.07V200.58ZM332.6 189.99L330.13 187.35H339.06C341.5 187.35 343.34 186.83 344.57 185.77C345.8 184.72 346.42 183.26 346.42 181.39C346.42 179.49 345.8 178.03 344.57 177.01C343.34 175.99 341.5 175.48 339.06 175.48H330.13L332.6 172.76V189.99ZM346.56 200.58L339.03 189.77H344.94L352.52 200.58H346.56Z" fill="#0A486B"/>
<path d="M368.04 200.58V175.47H358.17V170.79H383.45V175.47H373.58V200.58H368.04Z" fill="#0A486B"/>
<path d="M416.47 201.01C414.4 201.01 412.54 200.67 410.89 199.99C409.25 199.31 407.96 198.37 407.02 197.18C406.09 195.99 405.62 194.61 405.62 193.05C405.62 191.63 405.93 190.35 406.55 189.22C407.17 188.09 408.17 187 409.53 185.97C410.89 184.94 412.64 183.89 414.76 182.84C416.44 182.02 417.75 181.29 418.7 180.67C419.65 180.05 420.32 179.45 420.7 178.88C421.08 178.31 421.27 177.72 421.27 177.09C421.27 176.24 420.97 175.55 420.38 175.03C419.79 174.51 418.93 174.24 417.83 174.24C416.64 174.24 415.71 174.53 415.04 175.11C414.37 175.69 414.04 176.45 414.04 177.39C414.04 177.87 414.13 178.34 414.32 178.79C414.5 179.24 414.84 179.76 415.32 180.32C415.8 180.89 416.5 181.61 417.41 182.49L433.15 197.6L430.22 201.05L413.2 184.71C412.24 183.77 411.45 182.91 410.86 182.11C410.27 181.32 409.84 180.54 409.58 179.79C409.33 179.04 409.2 178.27 409.2 177.47C409.2 176.08 409.55 174.85 410.26 173.79C410.97 172.73 411.97 171.9 413.28 171.32C414.58 170.74 416.1 170.45 417.83 170.45C419.45 170.45 420.84 170.71 422.02 171.24C423.2 171.76 424.12 172.52 424.79 173.5C425.45 174.48 425.79 175.65 425.79 177.01C425.79 178.2 425.49 179.3 424.9 180.31C424.3 181.32 423.37 182.28 422.11 183.18C420.85 184.09 419.16 185.04 417.07 186.03C415.51 186.8 414.28 187.52 413.37 188.2C412.46 188.88 411.81 189.56 411.41 190.24C411.01 190.92 410.82 191.67 410.82 192.49C410.82 193.31 411.07 194.04 411.56 194.66C412.06 195.28 412.76 195.77 413.67 196.13C414.58 196.49 415.64 196.66 416.86 196.66C418.68 196.66 420.33 196.25 421.82 195.45C423.31 194.64 424.57 193.43 425.59 191.81C426.61 190.19 427.35 188.19 427.8 185.81L432.1 187.21C431.5 190.08 430.47 192.54 429.01 194.59C427.55 196.65 425.75 198.23 423.63 199.34C421.49 200.46 419.1 201.01 416.47 201.01Z" fill="#0A486B"/>
<path d="M458.17 200.58V170.8H463.7V195.91H479.28V200.59H458.17V200.58Z" fill="#0A486B"/>
<path d="M501.32 201.01C498.99 201.01 496.85 200.63 494.89 199.86C492.93 199.1 491.23 198.02 489.78 196.65C488.33 195.28 487.21 193.66 486.42 191.8C485.63 189.94 485.23 187.91 485.23 185.69C485.23 183.47 485.63 181.44 486.42 179.58C487.21 177.72 488.33 176.11 489.78 174.73C491.23 173.35 492.93 172.28 494.89 171.52C496.85 170.76 498.98 170.37 501.27 170.37C503.59 170.37 505.73 170.75 507.67 171.52C509.61 172.29 511.31 173.36 512.76 174.73C514.21 176.11 515.33 177.72 516.12 179.58C516.91 181.44 517.31 183.48 517.31 185.69C517.31 187.9 516.91 189.94 516.12 191.82C515.33 193.69 514.2 195.31 512.76 196.67C511.31 198.03 509.62 199.1 507.67 199.86C505.74 200.63 503.62 201.01 501.32 201.01ZM501.28 196.16C502.78 196.16 504.17 195.91 505.45 195.39C506.73 194.88 507.83 194.15 508.77 193.2C509.71 192.25 510.44 191.15 510.96 189.88C511.48 188.62 511.75 187.22 511.75 185.69C511.75 184.16 511.49 182.76 510.96 181.5C510.44 180.24 509.71 179.13 508.77 178.18C507.84 177.23 506.73 176.5 505.45 175.99C504.17 175.48 502.78 175.22 501.28 175.22C499.78 175.22 498.39 175.47 497.13 175.99C495.87 176.5 494.76 177.23 493.81 178.18C492.86 179.13 492.12 180.24 491.6 181.5C491.08 182.76 490.81 184.16 490.81 185.69C490.81 187.19 491.07 188.58 491.6 189.86C492.12 191.14 492.86 192.25 493.79 193.2C494.73 194.15 495.83 194.88 497.11 195.39C498.38 195.9 499.77 196.16 501.28 196.16Z" fill="#0A486B"/>
<path d="M541.36 201.01C539.03 201.01 536.9 200.63 534.96 199.88C533.02 199.13 531.32 198.06 529.87 196.69C528.42 195.31 527.3 193.69 526.51 191.82C525.72 189.95 525.32 187.91 525.32 185.69C525.32 183.47 525.72 181.43 526.51 179.56C527.3 177.69 528.43 176.06 529.89 174.69C531.35 173.32 533.06 172.25 535.02 171.5C536.98 170.75 539.12 170.37 541.45 170.37C543.97 170.37 546.25 170.78 548.28 171.6C550.31 172.42 552.02 173.63 553.41 175.22L549.92 178.62C548.76 177.46 547.5 176.6 546.15 176.05C544.8 175.5 543.32 175.22 541.7 175.22C540.14 175.22 538.69 175.47 537.36 175.99C536.03 176.5 534.88 177.22 533.91 178.16C532.95 179.09 532.2 180.2 531.68 181.48C531.16 182.76 530.89 184.16 530.89 185.69C530.89 187.19 531.15 188.58 531.68 189.86C532.2 191.14 532.95 192.25 533.91 193.2C534.88 194.15 536.01 194.88 537.32 195.39C538.62 195.9 540.07 196.16 541.66 196.16C543.14 196.16 544.56 195.93 545.94 195.46C547.32 194.99 548.63 194.2 549.88 193.1L553.03 197.23C551.47 198.48 549.66 199.42 547.61 200.06C545.54 200.69 543.46 201.01 541.36 201.01ZM547.79 196.5V185.35H553.02V197.22L547.79 196.5Z" fill="#0A486B"/>
<path d="M564.55 200.58V170.8H570.08V200.59H564.55V200.58Z" fill="#0A486B"/>
<path d="M591.61 201.01C589.28 201.01 587.05 200.67 584.93 200.01C582.8 199.34 581.11 198.49 579.87 197.44L581.78 193.14C582.97 194.07 584.45 194.86 586.21 195.48C587.97 196.1 589.77 196.41 591.62 196.41C593.18 196.41 594.44 196.24 595.41 195.9C596.37 195.56 597.08 195.1 597.53 194.52C597.99 193.94 598.21 193.28 598.21 192.54C598.21 191.63 597.89 190.9 597.23 190.35C596.58 189.8 595.73 189.36 594.7 189.03C593.66 188.7 592.51 188.4 591.25 188.11C589.99 187.83 588.73 187.49 587.46 187.11C586.2 186.73 585.05 186.23 584.01 185.62C582.98 185.01 582.13 184.19 581.48 183.17C580.83 182.15 580.5 180.84 580.5 179.26C580.5 177.64 580.93 176.16 581.79 174.81C582.66 173.46 583.98 172.39 585.75 171.58C587.53 170.77 589.77 170.37 592.5 170.37C594.29 170.37 596.06 170.6 597.82 171.05C599.58 171.5 601.11 172.15 602.41 173.01L600.67 177.31C599.34 176.52 597.96 175.93 596.54 175.54C595.12 175.16 593.76 174.97 592.46 174.97C590.93 174.97 589.69 175.15 588.74 175.52C587.79 175.89 587.09 176.37 586.65 176.97C586.21 177.56 585.99 178.25 585.99 179.01C585.99 179.92 586.31 180.65 586.95 181.2C587.59 181.75 588.43 182.19 589.46 182.5C590.49 182.81 591.65 183.12 592.93 183.41C594.2 183.71 595.48 184.04 596.74 184.41C598 184.78 599.15 185.26 600.18 185.86C601.22 186.46 602.06 187.27 602.69 188.29C603.32 189.31 603.65 190.6 603.65 192.16C603.65 193.75 603.22 195.22 602.35 196.56C601.49 197.91 600.16 198.99 598.37 199.79C596.58 200.59 594.33 201.01 591.61 201.01Z" fill="#0A486B"/>
<path d="M619.01 200.58V175.47H609.14V170.79H634.42V175.47H624.55V200.58H619.01Z" fill="#0A486B"/>
<path d="M642.85 200.58V170.8H648.38V200.59H642.85V200.58Z" fill="#0A486B"/>
<path d="M674.46 201.01C672.19 201.01 670.09 200.63 668.14 199.88C666.2 199.13 664.51 198.06 663.08 196.69C661.65 195.31 660.53 193.69 659.74 191.82C658.95 189.95 658.55 187.91 658.55 185.69C658.55 183.47 658.95 181.43 659.74 179.56C660.53 177.69 661.65 176.06 663.1 174.69C664.55 173.32 666.23 172.25 668.16 171.5C670.09 170.75 672.2 170.37 674.5 170.37C676.94 170.37 679.17 170.79 681.19 171.63C683.2 172.47 684.9 173.71 686.3 175.35L682.73 178.71C681.65 177.55 680.44 176.67 679.11 176.09C677.78 175.51 676.33 175.22 674.77 175.22C673.21 175.22 671.78 175.47 670.49 175.99C669.2 176.5 668.08 177.22 667.13 178.16C666.18 179.09 665.44 180.2 664.92 181.48C664.4 182.76 664.14 184.16 664.14 185.69C664.14 187.22 664.4 188.62 664.92 189.9C665.44 191.18 666.18 192.28 667.13 193.22C668.08 194.15 669.2 194.88 670.49 195.39C671.78 195.9 673.21 196.16 674.77 196.16C676.33 196.16 677.77 195.87 679.11 195.29C680.44 194.71 681.65 193.82 682.73 192.63L686.3 196.03C684.91 197.65 683.2 198.88 681.19 199.73C679.17 200.58 676.93 201.01 674.46 201.01Z" fill="#0A486B"/>
<path d="M705.06 201.01C702.73 201.01 700.5 200.67 698.38 200.01C696.25 199.34 694.56 198.49 693.32 197.44L695.23 193.14C696.42 194.07 697.9 194.86 699.66 195.48C701.42 196.1 703.22 196.41 705.07 196.41C706.63 196.41 707.89 196.24 708.86 195.9C709.82 195.56 710.53 195.1 710.98 194.52C711.44 193.94 711.66 193.28 711.66 192.54C711.66 191.63 711.34 190.9 710.68 190.35C710.03 189.8 709.18 189.36 708.15 189.03C707.11 188.7 705.96 188.4 704.7 188.11C703.44 187.83 702.18 187.49 700.91 187.11C699.65 186.73 698.5 186.23 697.46 185.62C696.43 185.01 695.58 184.19 694.93 183.17C694.28 182.15 693.95 180.84 693.95 179.26C693.95 177.64 694.38 176.16 695.24 174.81C696.11 173.46 697.43 172.39 699.2 171.58C700.98 170.77 703.22 170.37 705.95 170.37C707.74 170.37 709.51 170.6 711.27 171.05C713.03 171.5 714.56 172.15 715.86 173.01L714.12 177.31C712.79 176.52 711.41 175.93 709.99 175.54C708.57 175.15 707.21 174.97 705.91 174.97C704.38 174.97 703.14 175.15 702.19 175.52C701.24 175.89 700.54 176.37 700.1 176.97C699.66 177.56 699.44 178.25 699.44 179.01C699.44 179.92 699.76 180.65 700.4 181.2C701.04 181.75 701.88 182.19 702.91 182.5C703.94 182.81 705.1 183.12 706.38 183.41C707.65 183.71 708.93 184.04 710.19 184.41C711.45 184.78 712.6 185.26 713.63 185.86C714.67 186.46 715.51 187.27 716.14 188.29C716.77 189.31 717.1 190.6 717.1 192.16C717.1 193.75 716.67 195.22 715.8 196.56C714.94 197.91 713.61 198.99 711.82 199.79C710.03 200.59 707.78 201.01 705.06 201.01Z" fill="#0A486B"/>
<path d="M414.98 118.52L326.16 0.949951H313.38V140.68H326.16V23.0999L414.98 140.68H427.76V0.949951H414.98V118.52Z" fill="#008EEF"/>
<path d="M490.25 39.27C461.91 39.27 438.75 62.23 438.75 90.7701C438.75 119.31 461.91 142.27 490.25 142.27C518.79 142.27 541.75 119.31 541.75 90.7701C541.75 62.23 518.79 39.27 490.25 39.27ZM490.45 130.1C468.89 130.1 451.52 112.73 451.52 90.7801C451.52 68.8201 468.49 51.46 490.45 51.46C512.4 51.46 528.98 68.8201 528.98 90.7801C528.97 112.73 512 130.1 490.45 130.1Z" fill="#008EEF"/>
<path d="M596.65 53.0498L609.27 40.8799H571.5V9.33984H558.72V40.8799H543.75V53.0498H558.72V93.5699C558.92 124.11 574.49 139.08 596.65 141.28V128.9C581.08 126.5 571.5 115.33 571.5 93.1698V53.0399H596.65V53.0498Z" fill="#008EEF"/>
<path d="M651.35 51.45C664.36 51.45 675.41 57.5 682.41 67.07C685 64.01 687.72 61.01 690.54 58.06C681.41 46.66 667.25 39.27 651.16 39.27C622.82 39.27 599.66 62.23 599.66 90.7701C599.66 115.28 616.76 135.63 639.53 140.9C640.92 137.32 642.5 133.48 644.27 129.42C626.12 126.09 612.43 110.25 612.43 90.7701C612.42 68.8101 629.39 51.45 651.35 51.45Z" fill="#008EEF"/>
<path d="M718.18 0.949951H705.4V44.0299C709.45 40.6299 713.72 37.3999 718.18 34.3199V0.949951Z" fill="#008EEF"/>
<path d="M749.32 39.27C739.7 39.27 731.76 41.4 725.22 47.16C717.47 56 710.23 66.01 705.4 76.54C698.41 91.77 696.48 108.07 705.4 123.45C708.38 128.58 712.57 133.61 718.18 138.46V87.17C718.18 63.22 730.76 51.44 749.32 51.44C767.89 51.44 780.46 63.22 780.46 88.16V140.66H793.24V88.16C793.24 54.65 774.87 39.27 749.32 39.27Z" fill="#008EEF"/>
<path d="M710.17 51.45C676.12 75.93 668.39 123.05 666.63 142.27H687.93C664.04 102.76 710.17 51.45 710.17 51.45Z" fill="#008EEF"/>
<path d="M98.57 0.949951H0.76001V26.2999H36.69V140.68H62.64V26.2999H98.57V0.949951Z" fill="#0A486B"/>
<path d="M137.11 39.27C108.57 39.27 85.6099 62.23 85.6099 90.7701C85.6099 119.31 108.57 142.27 137.11 142.27C165.65 142.27 188.61 119.31 188.61 90.7701C188.61 62.23 165.65 39.27 137.11 39.27ZM137.31 116.92C122.54 116.92 111.56 105.54 111.56 90.7701C111.56 76 122.54 64.62 137.31 64.62C152.08 64.62 162.66 76 162.66 90.7701C162.66 105.54 152.08 116.92 137.31 116.92Z" fill="#0A486B"/>
<path d="M250.9 39.27C222.56 39.27 199.6 62.23 199.6 90.7701V159.53H225.75V134.69C232.73 139.68 240.72 142.28 250.9 142.28C279.25 142.28 302.4 119.32 302.4 90.7801C302.4 62.2301 279.24 39.27 250.9 39.27ZM251.1 116.92C236.33 116.92 225.35 105.54 225.35 90.7701C225.35 76 236.33 64.62 251.1 64.62C265.87 64.62 276.45 76 276.45 90.7701C276.45 105.54 265.87 116.92 251.1 116.92Z" fill="#0A486B"/>
</svg>
