<svg width="793" height="202" viewBox="0 0 793 202" fill="none" xmlns="http://www.w3.org/2000/svg">
<path d="M86.02 200.58V175.47H76.1499V170.79H101.43V175.47H91.5599V200.58H86.02Z" fill="white"/>
<path d="M109.84 200.58V170.8H122.1C124.74 170.8 127 171.23 128.89 172.08C130.78 172.93 132.23 174.15 133.25 175.74C134.27 177.33 134.78 179.22 134.78 181.4C134.78 183.58 134.27 185.46 133.25 187.04C132.23 188.61 130.77 189.82 128.89 190.66C127 191.5 124.74 191.92 122.1 191.92H112.91L115.38 189.41V200.6H109.84V200.58ZM115.37 189.99L112.9 187.35H121.83C124.27 187.35 126.11 186.83 127.34 185.77C128.57 184.72 129.19 183.26 129.19 181.39C129.19 179.49 128.57 178.03 127.34 177.01C126.11 175.99 124.27 175.48 121.83 175.48H112.9L115.37 172.76V189.99ZM129.33 200.58L121.8 189.77H127.71L135.29 200.58H129.33Z" fill="white"/>
<path d="M140.99 200.58L154.39 170.79H159.84L173.29 200.58H167.5L155.97 173.73H158.18L146.69 200.58H140.99ZM147.16 193.69L148.65 189.35H164.73L166.22 193.69H147.16Z" fill="white"/>
<path d="M181.33 200.58V170.8H185.88L204.56 193.74H202.3V170.8H207.79V200.59H203.24L184.56 177.65H186.82V200.59H181.33V200.58Z" fill="white"/>
<path d="M229.29 201.01C226.97 201.01 224.74 200.67 222.61 200.01C220.48 199.34 218.79 198.49 217.55 197.44L219.47 193.14C220.66 194.07 222.13 194.86 223.9 195.48C225.66 196.1 227.46 196.41 229.3 196.41C230.86 196.41 232.12 196.24 233.09 195.9C234.05 195.56 234.76 195.1 235.22 194.52C235.67 193.94 235.9 193.28 235.9 192.54C235.9 191.63 235.57 190.9 234.92 190.35C234.27 189.8 233.42 189.36 232.39 189.03C231.35 188.7 230.21 188.4 228.94 188.11C227.68 187.83 226.42 187.49 225.15 187.11C223.89 186.73 222.74 186.23 221.7 185.62C220.66 185.01 219.82 184.19 219.17 183.17C218.52 182.15 218.19 180.84 218.19 179.26C218.19 177.64 218.62 176.16 219.49 174.81C220.35 173.46 221.67 172.39 223.45 171.58C225.22 170.77 227.47 170.37 230.19 170.37C231.98 170.37 233.75 170.6 235.51 171.05C237.27 171.5 238.8 172.15 240.11 173.01L238.36 177.31C237.03 176.52 235.65 175.93 234.23 175.54C232.81 175.16 231.45 174.97 230.14 174.97C228.61 174.97 227.37 175.15 226.42 175.52C225.47 175.89 224.77 176.37 224.33 176.97C223.89 177.56 223.67 178.25 223.67 179.01C223.67 179.92 223.99 180.65 224.63 181.2C225.27 181.75 226.11 182.19 227.14 182.5C228.18 182.81 229.33 183.12 230.61 183.41C231.89 183.71 233.16 184.04 234.42 184.41C235.68 184.78 236.83 185.26 237.87 185.86C238.9 186.46 239.74 187.27 240.38 188.29C241.02 189.31 241.34 190.6 241.34 192.16C241.34 193.75 240.91 195.22 240.04 196.56C239.18 197.91 237.85 198.99 236.06 199.79C234.27 200.6 232.01 201.01 229.29 201.01Z" fill="white"/>
<path d="M251.08 200.58V170.8H263.34C265.98 170.8 268.24 171.23 270.13 172.08C272.02 172.93 273.47 174.15 274.49 175.74C275.51 177.33 276.02 179.22 276.02 181.4C276.02 183.58 275.51 185.47 274.49 187.06C273.47 188.65 272.01 189.87 270.13 190.72C268.24 191.57 265.98 192 263.34 192H254.15L256.62 189.41V200.6H251.08V200.58ZM256.61 189.99L254.14 187.31H263.07C265.51 187.31 267.35 186.79 268.58 185.76C269.81 184.73 270.43 183.27 270.43 181.4C270.43 179.5 269.81 178.04 268.58 177.02C267.35 176 265.51 175.49 263.07 175.49H254.14L256.61 172.77V189.99Z" fill="white"/>
<path d="M300.18 201.01C297.85 201.01 295.71 200.63 293.75 199.86C291.79 199.1 290.09 198.02 288.64 196.65C287.19 195.28 286.07 193.66 285.28 191.8C284.49 189.94 284.09 187.91 284.09 185.69C284.09 183.47 284.49 181.44 285.28 179.58C286.07 177.72 287.19 176.11 288.64 174.73C290.09 173.35 291.79 172.28 293.75 171.52C295.71 170.75 297.84 170.37 300.13 170.37C302.45 170.37 304.59 170.75 306.53 171.52C308.47 172.29 310.17 173.36 311.62 174.73C313.07 176.11 314.19 177.72 314.98 179.58C315.77 181.44 316.17 183.48 316.17 185.69C316.17 187.9 315.77 189.94 314.98 191.82C314.19 193.69 313.06 195.31 311.62 196.67C310.17 198.03 308.48 199.1 306.53 199.86C304.6 200.63 302.48 201.01 300.18 201.01ZM300.14 196.16C301.64 196.16 303.03 195.91 304.31 195.39C305.59 194.88 306.69 194.15 307.63 193.2C308.57 192.25 309.3 191.15 309.82 189.88C310.34 188.62 310.61 187.22 310.61 185.69C310.61 184.16 310.35 182.76 309.82 181.5C309.3 180.24 308.57 179.13 307.63 178.18C306.7 177.23 305.59 176.5 304.31 175.99C303.03 175.48 301.64 175.22 300.14 175.22C298.64 175.22 297.25 175.47 295.99 175.99C294.73 176.5 293.62 177.23 292.67 178.18C291.72 179.13 290.98 180.24 290.46 181.5C289.94 182.76 289.67 184.16 289.67 185.69C289.67 187.19 289.93 188.58 290.46 189.86C290.98 191.14 291.72 192.25 292.65 193.2C293.59 194.15 294.69 194.88 295.97 195.39C297.25 195.9 298.63 196.16 300.14 196.16Z" fill="white"/>
<path d="M326.31 200.58V170.8H338.57C341.21 170.8 343.47 171.23 345.36 172.08C347.25 172.93 348.7 174.15 349.72 175.74C350.74 177.33 351.25 179.22 351.25 181.4C351.25 183.58 350.74 185.46 349.72 187.04C348.7 188.61 347.24 189.82 345.36 190.66C343.47 191.5 341.21 191.92 338.57 191.92H329.38L331.85 189.41V200.6H326.31V200.58ZM331.84 189.99L329.37 187.35H338.3C340.74 187.35 342.58 186.83 343.81 185.77C345.04 184.72 345.66 183.26 345.66 181.39C345.66 179.49 345.04 178.03 343.81 177.01C342.58 175.99 340.74 175.48 338.3 175.48H329.37L331.84 172.76V189.99ZM345.8 200.58L338.27 189.77H344.18L351.76 200.58H345.8Z" fill="white"/>
<path d="M367.28 200.58V175.47H357.41V170.79H382.69V175.47H372.82V200.58H367.28Z" fill="white"/>
<path d="M415.71 201.01C413.64 201.01 411.78 200.67 410.13 199.99C408.49 199.31 407.2 198.37 406.26 197.18C405.33 195.99 404.86 194.61 404.86 193.05C404.86 191.63 405.17 190.35 405.79 189.22C406.41 188.09 407.41 187 408.77 185.97C410.13 184.94 411.88 183.89 414 182.84C415.68 182.02 416.99 181.29 417.94 180.67C418.89 180.05 419.56 179.45 419.94 178.88C420.32 178.31 420.51 177.72 420.51 177.09C420.51 176.24 420.21 175.55 419.62 175.03C419.03 174.51 418.17 174.24 417.07 174.24C415.88 174.24 414.95 174.53 414.28 175.11C413.61 175.69 413.28 176.45 413.28 177.39C413.28 177.87 413.37 178.34 413.56 178.79C413.74 179.24 414.08 179.76 414.56 180.32C415.04 180.89 415.74 181.61 416.65 182.49L432.39 197.6L429.46 201.05L412.44 184.71C411.48 183.77 410.69 182.91 410.1 182.11C409.51 181.32 409.08 180.54 408.82 179.79C408.57 179.04 408.44 178.27 408.44 177.47C408.44 176.08 408.79 174.85 409.5 173.79C410.21 172.73 411.21 171.9 412.52 171.32C413.82 170.74 415.34 170.45 417.07 170.45C418.69 170.45 420.08 170.71 421.26 171.24C422.44 171.76 423.36 172.52 424.03 173.5C424.69 174.48 425.03 175.65 425.03 177.01C425.03 178.2 424.73 179.3 424.14 180.31C423.54 181.32 422.61 182.28 421.35 183.18C420.09 184.09 418.4 185.04 416.31 186.03C414.75 186.8 413.52 187.52 412.61 188.2C411.7 188.88 411.05 189.56 410.65 190.24C410.25 190.92 410.06 191.67 410.06 192.49C410.06 193.31 410.31 194.04 410.8 194.66C411.3 195.28 412 195.77 412.91 196.13C413.82 196.49 414.88 196.66 416.1 196.66C417.92 196.66 419.57 196.25 421.06 195.45C422.55 194.64 423.81 193.43 424.83 191.81C425.85 190.19 426.59 188.19 427.04 185.81L431.34 187.21C430.74 190.08 429.71 192.54 428.25 194.59C426.79 196.65 424.99 198.23 422.87 199.34C420.73 200.46 418.34 201.01 415.71 201.01Z" fill="white"/>
<path d="M457.41 200.58V170.8H462.94V195.91H478.52V200.59H457.41V200.58Z" fill="white"/>
<path d="M500.56 201.01C498.23 201.01 496.09 200.63 494.13 199.86C492.17 199.1 490.47 198.02 489.02 196.65C487.57 195.28 486.45 193.66 485.66 191.8C484.87 189.94 484.47 187.91 484.47 185.69C484.47 183.47 484.87 181.44 485.66 179.58C486.45 177.72 487.57 176.11 489.02 174.73C490.47 173.35 492.17 172.28 494.13 171.52C496.09 170.76 498.22 170.37 500.51 170.37C502.83 170.37 504.97 170.75 506.91 171.52C508.85 172.29 510.55 173.36 512 174.73C513.45 176.11 514.57 177.72 515.36 179.58C516.15 181.44 516.55 183.48 516.55 185.69C516.55 187.9 516.15 189.94 515.36 191.82C514.57 193.69 513.44 195.31 512 196.67C510.55 198.03 508.86 199.1 506.91 199.86C504.98 200.63 502.86 201.01 500.56 201.01ZM500.52 196.16C502.02 196.16 503.41 195.91 504.69 195.39C505.97 194.88 507.07 194.15 508.01 193.2C508.95 192.25 509.68 191.15 510.2 189.88C510.72 188.62 510.99 187.22 510.99 185.69C510.99 184.16 510.73 182.76 510.2 181.5C509.68 180.24 508.95 179.13 508.01 178.18C507.08 177.23 505.97 176.5 504.69 175.99C503.41 175.48 502.02 175.22 500.52 175.22C499.02 175.22 497.63 175.47 496.37 175.99C495.11 176.5 494 177.23 493.05 178.18C492.1 179.13 491.36 180.24 490.84 181.5C490.32 182.76 490.05 184.16 490.05 185.69C490.05 187.19 490.31 188.58 490.84 189.86C491.36 191.14 492.1 192.25 493.03 193.2C493.97 194.15 495.07 194.88 496.35 195.39C497.62 195.9 499.01 196.16 500.52 196.16Z" fill="white"/>
<path d="M540.6 201.01C538.27 201.01 536.14 200.63 534.2 199.88C532.26 199.13 530.56 198.06 529.11 196.69C527.66 195.31 526.54 193.69 525.75 191.82C524.96 189.95 524.56 187.91 524.56 185.69C524.56 183.47 524.96 181.43 525.75 179.56C526.54 177.69 527.67 176.06 529.13 174.69C530.59 173.32 532.3 172.25 534.26 171.5C536.22 170.75 538.36 170.37 540.69 170.37C543.21 170.37 545.49 170.78 547.52 171.6C549.55 172.42 551.26 173.63 552.65 175.22L549.16 178.62C548 177.46 546.74 176.6 545.39 176.05C544.04 175.5 542.56 175.22 540.94 175.22C539.38 175.22 537.93 175.47 536.6 175.99C535.27 176.5 534.12 177.22 533.15 178.16C532.19 179.09 531.44 180.2 530.92 181.48C530.4 182.76 530.13 184.16 530.13 185.69C530.13 187.19 530.39 188.58 530.92 189.86C531.44 191.14 532.19 192.25 533.15 193.2C534.12 194.15 535.25 194.88 536.56 195.39C537.86 195.9 539.31 196.16 540.9 196.16C542.38 196.16 543.8 195.93 545.18 195.46C546.56 194.99 547.87 194.2 549.12 193.1L552.27 197.23C550.71 198.48 548.9 199.42 546.85 200.06C544.78 200.69 542.7 201.01 540.6 201.01ZM547.03 196.5V185.35H552.26V197.22L547.03 196.5Z" fill="white"/>
<path d="M563.79 200.58V170.8H569.32V200.59H563.79V200.58Z" fill="white"/>
<path d="M590.85 201.01C588.52 201.01 586.29 200.67 584.17 200.01C582.04 199.34 580.35 198.49 579.11 197.44L581.02 193.14C582.21 194.07 583.69 194.86 585.45 195.48C587.21 196.1 589.01 196.41 590.86 196.41C592.42 196.41 593.68 196.24 594.65 195.9C595.61 195.56 596.32 195.1 596.77 194.52C597.23 193.94 597.45 193.28 597.45 192.54C597.45 191.63 597.13 190.9 596.47 190.35C595.82 189.8 594.97 189.36 593.94 189.03C592.9 188.7 591.75 188.4 590.49 188.11C589.23 187.83 587.97 187.49 586.7 187.11C585.44 186.73 584.29 186.23 583.25 185.62C582.22 185.01 581.37 184.19 580.72 183.17C580.07 182.15 579.74 180.84 579.74 179.26C579.74 177.64 580.17 176.16 581.03 174.81C581.9 173.46 583.22 172.39 584.99 171.58C586.77 170.77 589.01 170.37 591.74 170.37C593.53 170.37 595.3 170.6 597.06 171.05C598.82 171.5 600.35 172.15 601.65 173.01L599.91 177.31C598.58 176.52 597.2 175.93 595.78 175.54C594.36 175.16 593 174.97 591.7 174.97C590.17 174.97 588.93 175.15 587.98 175.52C587.03 175.89 586.33 176.37 585.89 176.97C585.45 177.56 585.23 178.25 585.23 179.01C585.23 179.92 585.55 180.65 586.19 181.2C586.83 181.75 587.67 182.19 588.7 182.5C589.73 182.81 590.89 183.12 592.17 183.41C593.44 183.71 594.72 184.04 595.98 184.41C597.24 184.78 598.39 185.26 599.42 185.86C600.46 186.46 601.3 187.27 601.93 188.29C602.56 189.31 602.89 190.6 602.89 192.16C602.89 193.75 602.46 195.22 601.59 196.56C600.73 197.91 599.4 198.99 597.61 199.79C595.82 200.59 593.57 201.01 590.85 201.01Z" fill="white"/>
<path d="M618.25 200.58V175.47H608.38V170.79H633.66V175.47H623.79V200.58H618.25Z" fill="white"/>
<path d="M642.09 200.58V170.8H647.62V200.59H642.09V200.58Z" fill="white"/>
<path d="M673.7 201.01C671.43 201.01 669.33 200.63 667.38 199.88C665.44 199.13 663.75 198.06 662.32 196.69C660.89 195.31 659.77 193.69 658.98 191.82C658.19 189.95 657.79 187.91 657.79 185.69C657.79 183.47 658.19 181.43 658.98 179.56C659.77 177.69 660.89 176.06 662.34 174.69C663.79 173.32 665.47 172.25 667.4 171.5C669.33 170.75 671.44 170.37 673.74 170.37C676.18 170.37 678.41 170.79 680.43 171.63C682.44 172.47 684.14 173.71 685.54 175.35L681.97 178.71C680.89 177.55 679.68 176.67 678.35 176.09C677.02 175.51 675.57 175.22 674.01 175.22C672.45 175.22 671.02 175.47 669.73 175.99C668.44 176.5 667.32 177.22 666.37 178.16C665.42 179.09 664.68 180.2 664.16 181.48C663.64 182.76 663.38 184.16 663.38 185.69C663.38 187.22 663.64 188.62 664.16 189.9C664.68 191.18 665.42 192.28 666.37 193.22C667.32 194.15 668.44 194.88 669.73 195.39C671.02 195.9 672.45 196.16 674.01 196.16C675.57 196.16 677.01 195.87 678.35 195.29C679.68 194.71 680.89 193.82 681.97 192.63L685.54 196.03C684.15 197.65 682.44 198.88 680.43 199.73C678.41 200.58 676.17 201.01 673.7 201.01Z" fill="white"/>
<path d="M704.3 201.01C701.97 201.01 699.74 200.67 697.62 200.01C695.49 199.34 693.8 198.49 692.56 197.44L694.47 193.14C695.66 194.07 697.14 194.86 698.9 195.48C700.66 196.1 702.46 196.41 704.31 196.41C705.87 196.41 707.13 196.24 708.1 195.9C709.06 195.56 709.77 195.1 710.22 194.52C710.68 193.94 710.9 193.28 710.9 192.54C710.9 191.63 710.58 190.9 709.92 190.35C709.27 189.8 708.42 189.36 707.39 189.03C706.35 188.7 705.2 188.4 703.94 188.11C702.68 187.83 701.42 187.49 700.15 187.11C698.89 186.73 697.74 186.23 696.7 185.62C695.67 185.01 694.82 184.19 694.17 183.17C693.52 182.15 693.19 180.84 693.19 179.26C693.19 177.64 693.62 176.16 694.48 174.81C695.35 173.46 696.67 172.39 698.44 171.58C700.22 170.77 702.46 170.37 705.19 170.37C706.98 170.37 708.75 170.6 710.51 171.05C712.27 171.5 713.8 172.15 715.1 173.01L713.36 177.31C712.03 176.52 710.65 175.93 709.23 175.54C707.81 175.15 706.45 174.97 705.15 174.97C703.62 174.97 702.38 175.15 701.43 175.52C700.48 175.89 699.78 176.37 699.34 176.97C698.9 177.56 698.68 178.25 698.68 179.01C698.68 179.92 699 180.65 699.64 181.2C700.28 181.75 701.12 182.19 702.15 182.5C703.18 182.81 704.34 183.12 705.62 183.41C706.89 183.71 708.17 184.04 709.43 184.41C710.69 184.78 711.84 185.26 712.87 185.86C713.91 186.46 714.75 187.27 715.38 188.29C716.01 189.31 716.34 190.6 716.34 192.16C716.34 193.75 715.91 195.22 715.04 196.56C714.18 197.91 712.85 198.99 711.06 199.79C709.27 200.59 707.02 201.01 704.3 201.01Z" fill="white"/>
<path d="M414.22 118.52L325.4 0.949951H312.62V140.68H325.4V23.0999L414.22 140.68H427V0.949951H414.22V118.52Z" fill="#008EEF"/>
<path d="M489.49 39.27C461.15 39.27 437.99 62.23 437.99 90.7701C437.99 119.31 461.15 142.27 489.49 142.27C518.03 142.27 540.99 119.31 540.99 90.7701C540.99 62.23 518.03 39.27 489.49 39.27ZM489.69 130.1C468.13 130.1 450.76 112.73 450.76 90.7801C450.76 68.8201 467.73 51.46 489.69 51.46C511.64 51.46 528.22 68.8201 528.22 90.7801C528.21 112.73 511.24 130.1 489.69 130.1Z" fill="#008EEF"/>
<path d="M595.89 53.0498L608.51 40.8799H570.74V9.33984H557.96V40.8799H542.99V53.0498H557.96V93.5699C558.16 124.11 573.73 139.08 595.89 141.28V128.9C580.32 126.5 570.74 115.33 570.74 93.1698V53.0399H595.89V53.0498Z" fill="#008EEF"/>
<path d="M650.59 51.45C663.6 51.45 674.65 57.5 681.65 67.07C684.24 64.01 686.96 61.01 689.78 58.06C680.65 46.66 666.49 39.27 650.4 39.27C622.06 39.27 598.9 62.23 598.9 90.7701C598.9 115.28 616 135.63 638.77 140.9C640.16 137.32 641.74 133.48 643.51 129.42C625.36 126.09 611.67 110.25 611.67 90.7701C611.66 68.8101 628.63 51.45 650.59 51.45Z" fill="#008EEF"/>
<path d="M717.42 0.949951H704.64V44.0299C708.69 40.6299 712.96 37.3999 717.42 34.3199V0.949951Z" fill="#008EEF"/>
<path d="M748.56 39.27C738.94 39.27 731 41.4 724.46 47.16C716.71 56 709.47 66.01 704.64 76.54C697.65 91.77 695.72 108.07 704.64 123.45C707.62 128.58 711.81 133.61 717.42 138.46V87.17C717.42 63.22 730 51.44 748.56 51.44C767.13 51.44 779.7 63.22 779.7 88.16V140.66H792.48V88.16C792.48 54.65 774.11 39.27 748.56 39.27Z" fill="#008EEF"/>
<path d="M709.41 51.45C675.36 75.93 667.63 123.05 665.87 142.27H687.17C663.28 102.76 709.41 51.45 709.41 51.45Z" fill="#008EEF"/>
<path d="M97.81 0.949951H0V26.2999H35.93V140.68H61.88V26.2999H97.81V0.949951Z" fill="white"/>
<path d="M136.35 39.27C107.81 39.27 84.8501 62.23 84.8501 90.7701C84.8501 119.31 107.81 142.27 136.35 142.27C164.89 142.27 187.85 119.31 187.85 90.7701C187.85 62.23 164.89 39.27 136.35 39.27ZM136.55 116.92C121.78 116.92 110.8 105.54 110.8 90.7701C110.8 76 121.78 64.62 136.55 64.62C151.32 64.62 161.9 76 161.9 90.7701C161.9 105.54 151.32 116.92 136.55 116.92Z" fill="white"/>
<path d="M250.14 39.27C221.8 39.27 198.84 62.23 198.84 90.7701V159.53H224.99V134.69C231.97 139.68 239.96 142.28 250.14 142.28C278.49 142.28 301.64 119.32 301.64 90.7801C301.64 62.2301 278.48 39.27 250.14 39.27ZM250.34 116.92C235.57 116.92 224.59 105.54 224.59 90.7701C224.59 76 235.57 64.62 250.34 64.62C265.11 64.62 275.69 76 275.69 90.7701C275.69 105.54 265.11 116.92 250.34 116.92Z" fill="white"/>
</svg>
